<?xml version="1.0" encoding="UTF-8"?>
<!DOCTYPE svg PUBLIC "-//W3C//DTD SVG 1.1//EN" "http://www.w3.org/Graphics/SVG/1.1/DTD/svg11.dtd">
<svg xmlns="http://www.w3.org/2000/svg" version="1.1" width="1024px" height="1024px" style="shape-rendering:geometricPrecision; text-rendering:geometricPrecision; image-rendering:optimizeQuality; fill-rule:evenodd; clip-rule:evenodd" xmlns:xlink="http://www.w3.org/1999/xlink">
<g><path style="opacity:0.994" fill="#397ac1" d="M 200.5,287.5 C 211.246,296.743 221.58,306.576 231.5,317C 250.831,317.97 270.164,318.804 289.5,319.5C 217.815,408.036 199.982,506.703 236,615.5C 271.377,705.211 334.877,765.044 426.5,795C 533.817,823.647 629.15,801.647 712.5,729C 784.002,658.846 814.502,573.679 804,473.5C 786.981,370.891 732.481,295.724 640.5,248C 546.748,205.659 454.748,208.992 364.5,258C 349.435,267.194 335.101,277.36 321.5,288.5C 320.121,269.002 318.955,249.335 318,229.5C 308.298,219.965 298.798,210.298 289.5,200.5C 336.98,165.82 389.98,143.653 448.5,134C 584.365,115.174 699.865,154.674 795,252.5C 878.233,347.245 909.9,457.245 890,582.5C 867.559,693.306 809.059,779.14 714.5,840C 618.257,897.082 515.924,911.415 407.5,883C 291.968,847.798 209.135,775.298 159,665.5C 115.807,559.45 117.474,454.116 164,349.5C 174.414,327.653 186.58,306.987 200.5,287.5 Z"/></g>
<g><path style="opacity:0.991" fill="#aeb32b" d="M 289.5,200.5 C 298.798,210.298 308.298,219.965 318,229.5C 318.955,249.335 320.121,269.002 321.5,288.5C 321.5,293.167 321.5,297.833 321.5,302.5C 296.167,277.833 271.167,252.833 246.5,227.5C 243.521,202.235 241.355,176.902 240,151.5C 256.368,168.035 272.868,184.368 289.5,200.5 Z"/></g>
<g><path style="opacity:0.996" fill="#393949" d="M 246.5,227.5 C 271.167,252.833 296.167,277.833 321.5,302.5C 343.5,325.167 365.833,347.5 388.5,369.5C 408.167,389.833 428.167,409.833 448.5,429.5C 460.167,441.833 472.167,453.833 484.5,465.5C 497.131,478.632 509.965,491.632 523,504.5C 526.498,510.349 525.998,515.849 521.5,521C 516.275,523.243 511.275,522.909 506.5,520C 493.632,506.965 480.632,494.131 467.5,481.5C 456.167,469.833 444.833,458.167 433.5,446.5C 413.193,426.527 392.86,406.527 372.5,386.5C 350.833,364.167 328.833,342.167 306.5,320.5C 281.833,295.167 256.833,270.167 231.5,245.5C 231.5,244.833 231.167,244.5 230.5,244.5C 220.202,233.702 209.702,223.035 199,212.5C 195.869,207.866 195.869,203.199 199,198.5C 203.625,194.359 208.791,193.526 214.5,196C 225.035,206.702 235.702,217.202 246.5,227.5 Z"/></g>
<g><path style="opacity:1" fill="#e1ecef" d="M 289.5,319.5 C 295.13,320.292 300.797,320.625 306.5,320.5C 328.833,342.167 350.833,364.167 372.5,386.5C 344.484,416.55 328.317,452.217 324,493.5C 319.253,570.834 348.753,631 412.5,674C 469.179,706.266 527.846,710.266 588.5,686C 652.585,655.05 689.752,604.217 700,533.5C 705.304,460.294 678.804,401.794 620.5,358C 562.04,319.957 500.373,313.957 435.5,340C 418.617,348.08 402.951,357.913 388.5,369.5C 365.833,347.5 343.5,325.167 321.5,302.5C 321.5,297.833 321.5,293.167 321.5,288.5C 335.101,277.36 349.435,267.194 364.5,258C 454.748,208.992 546.748,205.659 640.5,248C 732.481,295.724 786.981,370.891 804,473.5C 814.502,573.679 784.002,658.846 712.5,729C 629.15,801.647 533.817,823.647 426.5,795C 334.877,765.044 271.377,705.211 236,615.5C 199.982,506.703 217.815,408.036 289.5,319.5 Z"/></g>
<g><path style="opacity:0.989" fill="#aeb32b" d="M 230.5,244.5 C 231.167,244.5 231.5,244.833 231.5,245.5C 256.833,270.167 281.833,295.167 306.5,320.5C 300.797,320.625 295.13,320.292 289.5,319.5C 270.164,318.804 250.831,317.97 231.5,317C 221.58,306.576 211.246,296.743 200.5,287.5C 184.521,271.187 168.521,254.854 152.5,238.5C 152.833,238.167 153.167,237.833 153.5,237.5C 179.1,240.373 204.766,242.706 230.5,244.5 Z"/></g>
<g><path style="opacity:1" fill="#397ac1" d="M 372.5,386.5 C 392.86,406.527 413.193,426.527 433.5,446.5C 431.629,446.859 430.129,447.859 429,449.5C 403.043,486.953 400.71,525.953 422,566.5C 450.499,608.341 489.666,624.174 539.5,614C 588.309,597.518 613.976,563.518 616.5,512C 613.464,462.305 588.464,429.305 541.5,413C 507.748,403.653 476.748,409.153 448.5,429.5C 428.167,409.833 408.167,389.833 388.5,369.5C 402.951,357.913 418.617,348.08 435.5,340C 500.373,313.957 562.04,319.957 620.5,358C 678.804,401.794 705.304,460.294 700,533.5C 689.752,604.217 652.585,655.05 588.5,686C 527.846,710.266 469.179,706.266 412.5,674C 348.753,631 319.253,570.834 324,493.5C 328.317,452.217 344.484,416.55 372.5,386.5 Z"/></g>
<g><path style="opacity:1" fill="#e1ecef" d="M 433.5,446.5 C 444.833,458.167 456.167,469.833 467.5,481.5C 458.687,493.708 455.521,507.375 458,522.5C 466.612,554.439 487.445,569.272 520.5,567C 553.922,558.553 569.088,537.053 566,502.5C 556.737,470.775 535.57,456.275 502.5,459C 496.079,460.084 490.079,462.251 484.5,465.5C 472.167,453.833 460.167,441.833 448.5,429.5C 476.748,409.153 507.748,403.653 541.5,413C 588.464,429.305 613.464,462.305 616.5,512C 613.976,563.518 588.309,597.518 539.5,614C 489.666,624.174 450.499,608.341 422,566.5C 400.71,525.953 403.043,486.953 429,449.5C 430.129,447.859 431.629,446.859 433.5,446.5 Z"/></g>
<g><path style="opacity:1" fill="#f47c02" d="M 467.5,481.5 C 480.632,494.131 493.632,506.965 506.5,520C 511.275,522.909 516.275,523.243 521.5,521C 525.998,515.849 526.498,510.349 523,504.5C 509.965,491.632 497.131,478.632 484.5,465.5C 490.079,462.251 496.079,460.084 502.5,459C 535.57,456.275 556.737,470.775 566,502.5C 569.088,537.053 553.922,558.553 520.5,567C 487.445,569.272 466.612,554.439 458,522.5C 455.521,507.375 458.687,493.708 467.5,481.5 Z"/></g>
</svg>
